<?xml version="1.0" standalone="no"?>
<!DOCTYPE svg PUBLIC "-//W3C//DTD SVG 20010904//EN"
 "http://www.w3.org/TR/2001/REC-SVG-20010904/DTD/svg10.dtd">
<svg version="1.0" xmlns="http://www.w3.org/2000/svg"
 width="1050.000000pt" height="1280.000000pt" viewBox="0 0 1050.000000 1280.000000"
 preserveAspectRatio="xMidYMid meet">
<metadata>
Created by potrace 1.15, written by Peter Selinger 2001-2017
</metadata>
<g transform="translate(0.000000,1280.000000) scale(0.100000,-0.100000)"
fill="#000000" stroke="none">
<path d="M7535 12781 c-39 -10 -118 -39 -177 -65 -298 -127 -503 -148 -923
-95 -182 22 -289 21 -360 -5 -22 -8 -100 -44 -174 -80 -74 -36 -156 -70 -182
-75 -50 -11 -200 -4 -473 20 -273 25 -467 2 -896 -103 -395 -96 -728 -233
-980 -400 -102 -69 -370 -275 -513 -396 -714 -604 -1076 -1241 -1147 -2023 -9
-95 -8 -139 5 -238 l16 -120 -51 -633 c-27 -348 -57 -721 -65 -828 -16 -204
-58 -441 -151 -855 -131 -583 -243 -936 -319 -1005 -35 -32 -190 -249 -293
-410 -313 -491 -571 -1061 -702 -1553 -104 -393 -144 -682 -145 -1052 0 -254
8 -360 46 -575 105 -602 411 -1158 871 -1580 106 -98 702 -456 869 -522 953
-379 2184 -173 3191 535 171 120 506 393 495 403 -1 2 -311 -46 -687 -106
-376 -61 -698 -110 -715 -110 -40 0 -215 55 -280 88 -137 69 -244 165 -320
287 -54 86 -78 144 -157 375 -33 96 -75 207 -93 246 -30 67 -66 237 -52 250
10 10 115 -150 198 -301 256 -468 338 -577 487 -647 80 -38 156 -46 241 -23
l64 16 65 -33 c53 -26 80 -34 139 -37 41 -2 95 2 121 9 76 21 209 94 337 187
287 207 261 193 391 208 l115 14 152 -136 c276 -246 476 -394 609 -451 53 -22
77 -26 148 -25 47 0 107 7 135 14 l49 14 18 159 c82 737 360 1528 847 2409 57
103 107 187 111 187 4 0 276 -54 606 -121 l599 -121 110 7 c196 11 276 40 376
132 80 74 200 235 242 325 74 156 75 250 3 430 -71 181 -63 244 49 380 35 42
84 81 190 150 l143 92 7 127 c8 134 2 162 -35 174 -11 3 -20 10 -20 14 0 3 47
42 105 85 58 43 105 82 105 86 0 5 -26 44 -59 87 -77 103 -89 128 -101 213
-10 67 1 267 15 290 3 4 146 84 317 176 344 186 391 220 422 309 21 60 31 166
22 226 -6 41 -14 50 -94 114 -334 269 -574 527 -738 795 -62 101 -174 337
-174 365 0 10 43 88 95 174 68 111 99 175 111 221 28 112 24 130 -306 1325
-217 783 -222 802 -217 875 7 101 40 187 154 409 120 232 143 288 150 378 8
102 -11 146 -107 247 -42 45 -124 137 -182 206 -242 286 -455 459 -738 601
-194 96 -231 109 -305 102 -56 -5 -71 -3 -119 21 -30 15 -82 52 -117 83 -35
31 -83 65 -108 76 -65 29 -177 32 -266 8z m-2275 -6699 c0 -52 -3 -60 -23 -69
-39 -18 -137 -114 -179 -176 -162 -239 -205 -626 -103 -927 103 -302 325 -480
549 -439 413 74 620 760 382 1262 -33 69 -114 187 -149 216 -12 10 -17 30 -17
72 0 33 3 59 8 59 20 0 135 -106 184 -171 174 -228 246 -554 192 -870 -70
-410 -352 -709 -669 -709 -159 0 -282 55 -411 184 -163 164 -250 358 -276 624
-41 406 147 823 435 967 38 19 71 35 73 35 2 0 4 -26 4 -58z m-1378 -3129 c68
-59 332 -314 588 -567 256 -254 538 -530 628 -615 l162 -155 -82 -40 -83 -41
-170 0 c-187 0 -271 14 -395 64 -219 89 -407 294 -552 599 -46 96 -98 179
-214 343 -85 119 -154 225 -154 235 0 23 130 284 142 284 4 0 63 -48 130 -107z"/>
</g>
</svg>
