<?xml version="1.0" standalone="no"?>
<!DOCTYPE svg PUBLIC "-//W3C//DTD SVG 20010904//EN"
 "http://www.w3.org/TR/2001/REC-SVG-20010904/DTD/svg10.dtd">
<svg version="1.0" xmlns="http://www.w3.org/2000/svg"
 width="1280.000000pt" height="1280.000000pt" viewBox="0 0 1280.000000 1280.000000"
 preserveAspectRatio="xMidYMid meet">
<metadata>
Created by potrace 1.15, written by Peter Selinger 2001-2017
</metadata>
<g transform="translate(0.000000,1280.000000) scale(0.100000,-0.100000)"
fill="#000000" stroke="none">
<path d="M6331 12782 c-19 -9 -44 -30 -55 -45 -20 -28 -21 -42 -24 -468 -2
-277 1 -453 7 -477 6 -21 25 -51 41 -67 29 -27 38 -30 100 -30 62 0 71 3 100
30 17 16 35 45 41 65 7 22 9 191 7 477 -3 428 -4 442 -24 470 -26 36 -79 63
-124 63 -19 0 -50 -8 -69 -18z"/>
<path d="M3233 11959 c-75 -22 -123 -109 -99 -179 15 -44 386 -707 424 -759
49 -66 140 -77 203 -24 61 51 74 114 39 183 -22 43 -388 691 -411 728 -15 24
-85 63 -110 61 -8 0 -28 -5 -46 -10z"/>
<path d="M9462 11953 c-39 -19 -50 -36 -291 -484 -157 -293 -181 -343 -181
-381 0 -115 145 -193 228 -123 25 21 312 536 431 772 32 65 28 124 -11 169
-54 61 -114 78 -176 47z"/>
<path d="M6685 11256 c-33 -8 -77 -21 -98 -29 -36 -16 -37 -17 -37 -67 0 -29
3 -50 8 -48 181 91 306 87 357 -12 43 -83 11 -142 -196 -357 -166 -173 -169
-176 -169 -219 l0 -44 245 0 245 0 0 45 0 45 -181 0 -181 0 148 153 c176 181
207 229 207 323 0 54 -5 73 -30 112 -54 87 -185 128 -318 98z"/>
<path d="M5990 11232 l-75 -17 -3 -47 c-2 -27 1 -48 5 -48 4 1 47 9 96 19 l87
18 0 -293 0 -294 -85 0 -85 0 0 -45 0 -45 220 0 220 0 0 45 0 45 -85 0 -85 0
0 340 0 340 -67 -1 c-38 0 -102 -8 -143 -17z"/>
<path d="M3982 10527 c-12 -13 -22 -33 -22 -45 0 -12 493 -874 1095 -1917
l1096 -1895 -35 -50 c-52 -76 -69 -137 -64 -235 3 -65 10 -94 33 -139 35 -70
108 -139 183 -174 50 -24 69 -27 157 -26 86 0 108 4 157 26 73 34 152 112 186
186 23 50 27 69 27 152 -1 85 -4 101 -30 153 -51 102 -128 162 -272 212 -10 3
-13 308 -13 1479 l0 1475 -22 15 c-31 22 -74 20 -98 -4 -20 -20 -20 -33 -20
-1495 l0 -1475 -26 -10 c-14 -6 -28 -10 -32 -10 -4 0 -58 87 -119 193 -61 105
-551 953 -1088 1882 -537 930 -984 1698 -992 1708 -23 25 -75 22 -101 -6z"/>
<path d="M11777 9668 c-26 -9 -694 -404 -764 -451 -42 -29 -63 -67 -63 -117 0
-83 52 -141 132 -147 l53 -5 380 226 c212 127 394 242 413 261 63 68 37 186
-52 226 -46 21 -59 22 -99 7z"/>
<path d="M909 9654 c-34 -22 -66 -71 -74 -116 -10 -52 17 -101 74 -136 157
-96 764 -424 793 -428 118 -20 211 148 131 236 -23 24 -580 342 -763 435 -57
29 -122 32 -161 9z"/>
<path d="M10905 6840 c-22 -6 -50 -12 -62 -15 -20 -5 -23 -12 -23 -50 0 -25 2
-45 5 -45 2 0 30 7 62 15 31 8 89 15 129 15 57 0 78 -4 105 -23 44 -30 61 -63
55 -110 -9 -74 -65 -107 -183 -107 l-63 0 0 -44 0 -44 89 -4 c102 -4 133 -19
165 -82 39 -79 -6 -172 -97 -197 -60 -16 -193 -6 -251 19 l-47 21 3 -52 3 -52
50 -13 c79 -21 196 -26 256 -12 122 28 187 93 196 199 10 102 -28 171 -111
206 l-38 16 43 22 c24 12 54 38 67 57 20 30 23 45 20 101 -7 123 -83 181 -243
186 -49 1 -108 -2 -130 -7z"/>
<path d="M1639 6806 c-110 -39 -167 -139 -157 -274 11 -149 98 -232 246 -232
61 0 103 16 149 54 l33 28 -6 -34 c-22 -123 -64 -197 -131 -224 -43 -18 -128
-18 -189 1 -27 8 -50 15 -51 15 -2 0 -3 -20 -3 -44 0 -41 3 -45 33 -56 59 -21
159 -24 219 -6 104 30 189 134 217 264 34 162 -10 384 -91 459 -61 57 -184 80
-269 49z m180 -93 c46 -35 66 -81 66 -153 0 -121 -59 -185 -163 -177 -38 3
-59 10 -78 28 -92 86 -78 258 26 312 43 22 111 18 149 -10z"/>
<path d="M93 6539 c-123 -36 -120 -244 5 -279 23 -6 205 -10 467 -10 389 0
433 2 465 18 100 50 108 197 13 259 -25 17 -62 18 -473 20 -253 1 -459 -2
-477 -8z"/>
<path d="M11753 6531 c-50 -23 -77 -68 -77 -131 0 -65 27 -108 80 -131 41 -19
66 -20 498 -17 442 3 455 4 483 24 82 60 82 188 0 248 -28 20 -41 21 -485 23
-432 3 -459 2 -499 -16z"/>
<path d="M1284 3625 c-211 -126 -393 -241 -411 -260 -67 -71 -35 -194 61 -230
36 -14 51 -15 79 -6 31 10 688 396 774 454 118 80 60 267 -83 267 -35 0 -91
-30 -420 -225z"/>
<path d="M11039 3808 c-74 -42 -101 -143 -56 -208 17 -26 109 -83 396 -247
206 -117 391 -218 412 -224 32 -10 43 -9 83 10 115 56 122 195 14 262 -86 54
-684 393 -723 410 -52 24 -82 23 -126 -3z"/>
<path d="M6422 2216 c-163 -53 -242 -222 -221 -468 10 -114 41 -192 98 -249
50 -51 96 -69 175 -69 75 0 126 20 178 70 59 57 84 132 74 224 -15 148 -102
226 -250 226 -62 0 -104 -17 -148 -58 -26 -24 -28 -24 -28 -6 0 39 31 140 55
175 47 71 152 97 261 64 27 -8 52 -15 57 -15 4 0 7 20 7 45 0 42 -1 45 -37 55
-62 19 -173 21 -221 6z m129 -369 c48 -32 69 -79 69 -157 -1 -141 -108 -220
-220 -162 -102 53 -107 261 -8 322 46 28 115 27 159 -3z"/>
<path d="M9048 1850 c-69 -37 -101 -110 -74 -174 16 -39 379 -691 428 -768 54
-86 153 -98 226 -27 38 37 54 87 41 132 -5 17 -107 208 -227 422 -235 418
-248 435 -321 435 -20 -1 -53 -10 -73 -20z"/>
<path d="M3635 1820 c-21 -13 -104 -139 -269 -407 -217 -351 -240 -392 -240
-433 -2 -82 64 -140 158 -140 38 0 52 6 81 33 38 35 471 730 491 788 41 117
-114 228 -221 159z"/>
<path d="M6334 1111 c-31 -14 -72 -68 -79 -104 -3 -18 -5 -231 -3 -474 3 -428
4 -442 24 -470 60 -82 188 -82 248 0 20 28 21 42 24 475 2 289 0 460 -7 482
-6 20 -24 49 -41 65 -25 24 -40 29 -87 32 -32 1 -67 -1 -79 -6z"/>
</g>
</svg>
