<?xml version="1.0" standalone="no"?>
<!DOCTYPE svg PUBLIC "-//W3C//DTD SVG 20010904//EN"
 "http://www.w3.org/TR/2001/REC-SVG-20010904/DTD/svg10.dtd">
<svg version="1.0" xmlns="http://www.w3.org/2000/svg"
 width="1920.000000pt" height="1920.000000pt" viewBox="0 0 1920.000000 1920.000000"
 preserveAspectRatio="xMidYMid meet">

<g transform="translate(0.000000,1920.000000) scale(0.100000,-0.100000)"
fill="#000000" stroke="none">
<path d="M3210 14634 c-414 -48 -706 -132 -1029 -294 -281 -141 -499 -298
-722 -520 -332 -330 -563 -722 -692 -1170 -236 -819 -72 -1792 435 -2577 l60
-92 -94 -93 c-382 -379 -591 -871 -590 -1393 0 -656 243 -1238 708 -1697 374
-369 815 -594 1319 -673 142 -22 461 -30 624 -16 609 54 1167 293 1633 698
458 398 784 999 884 1628 22 138 30 527 14 697 -50 552 -233 1080 -532 1535
l-60 92 90 86 c239 227 428 538 518 850 109 377 108 752 -2 1188 -132 522
-511 1040 -999 1364 -280 186 -612 316 -945 368 -100 16 -534 29 -620 19z
m230 -1084 c47 -6 127 -22 179 -35 384 -102 707 -427 802 -810 26 -102 37
-358 20 -463 -39 -247 -197 -452 -434 -562 -122 -57 -290 -83 -389 -60 -139
33 -252 126 -317 264 -64 133 -76 230 -41 331 58 170 250 295 433 283 174 -11
326 -146 382 -341 30 -104 102 -117 137 -26 58 157 39 363 -48 530 -75 143
-187 250 -339 324 -156 76 -222 90 -430 90 -160 0 -190 -3 -265 -24 -388 -109
-673 -380 -800 -759 -16 -48 -39 -141 -51 -207 -18 -103 -20 -143 -16 -285 6
-181 20 -260 73 -420 158 -476 529 -845 1008 -1002 399 -131 907 -107 1296 61
l92 40 58 -122 c118 -250 200 -531 240 -822 20 -150 24 -536 6 -671 -87 -658
-468 -1205 -1041 -1492 -271 -135 -511 -193 -806 -193 -178 1 -304 17 -422 56
-356 116 -665 440 -750 785 -41 166 -46 410 -11 545 77 297 328 514 642 556
157 21 281 -19 388 -126 140 -141 192 -355 122 -507 -31 -66 -95 -140 -157
-179 -118 -76 -278 -90 -394 -37 -107 50 -199 164 -247 303 -9 27 -28 58 -42
68 -23 17 -29 18 -54 6 -46 -22 -67 -98 -68 -244 -1 -99 3 -133 22 -195 85
-269 285 -451 577 -525 242 -62 480 -34 722 85 428 210 676 654 658 1175 -20
550 -362 1075 -860 1319 -292 144 -592 202 -908 177 -245 -20 -401 -55 -600
-135 l-107 -44 -41 86 c-93 196 -164 403 -213 622 -77 348 -85 754 -21 1064
167 804 812 1413 1605 1515 95 12 313 13 410 1z"/>
<path d="M15707 9120 c-319 -36 -635 -236 -792 -501 -58 -99 -117 -266 -141
-399 -62 -360 114 -779 421 -1002 217 -157 545 -232 802 -183 160 30 299 91
438 190 103 73 143 112 217 210 173 227 247 540 197 828 -19 112 -95 302 -144
362 -12 15 -11 10 4 -20 48 -100 66 -185 66 -315 0 -150 -15 -216 -81 -348
-78 -156 -213 -280 -380 -351 -95 -40 -172 -55 -284 -54 -206 0 -393 88 -544
255 -83 91 -110 153 -114 260 -6 145 32 241 136 340 119 113 264 152 417 113
84 -22 147 -60 209 -125 89 -93 128 -189 127 -314 -1 -167 -100 -323 -254
-398 -59 -28 -60 -29 -22 -23 62 10 163 54 240 103 329 211 435 649 242 995
-150 268 -441 412 -760 377z"/>
</g>
</svg>
