<?xml version="1.0" standalone="no"?>
<!DOCTYPE svg PUBLIC "-//W3C//DTD SVG 20010904//EN"
 "http://www.w3.org/TR/2001/REC-SVG-20010904/DTD/svg10.dtd">
<svg version="1.0" xmlns="http://www.w3.org/2000/svg"
 width="1280.000000pt" height="1280.000000pt" viewBox="0 0 1280.000000 1280.000000"
 preserveAspectRatio="xMidYMid meet">
<g transform="translate(0.000000,1280.000000) scale(0.100000,-0.100000)"
fill="#000000" stroke="none">
<path d="M6190 12789 c-58 -4 -177 -13 -265 -19 -1200 -83 -2373 -521 -3350
-1252 -991 -740 -1751 -1760 -2175 -2918 -200 -543 -328 -1139 -369 -1710 -37
-506 -37 -474 0 -985 41 -568 170 -1162 369 -1705 644 -1758 2042 -3156 3800
-3800 543 -200 1139 -328 1710 -369 506 -37 474 -37 985 0 1193 87 2359 525
3330 1251 991 740 1751 1760 2175 2918 200 543 328 1139 369 1710 37 506 37
474 0 985 -41 568 -170 1162 -369 1705 -644 1758 -2042 3156 -3800 3800 -546
200 -1148 330 -1715 369 -82 6 -213 15 -291 21 -156 11 -249 11 -404 -1z m625
-760 c1018 -70 2009 -428 2860 -1034 417 -297 824 -684 1148 -1092 453 -572
799 -1240 998 -1925 168 -581 241 -1181 218 -1796 -41 -1099 -397 -2146 -1037
-3047 -799 -1125 -1991 -1925 -3331 -2235 -1112 -258 -2292 -169 -3350 252
-1904 757 -3262 2503 -3520 4528 -33 255 -43 430 -43 720 0 290 10 465 43 720
108 848 412 1665 885 2381 1072 1622 2890 2582 4814 2542 91 -2 233 -8 315
-14z"/>
<path d="M5040 10721 c-73 -29 -652 -369 -688 -404 -83 -80 -101 -204 -45
-312 86 -167 1156 -2005 1185 -2035 61 -65 167 -95 253 -71 54 14 671 371 715
413 68 64 97 179 68 264 -8 22 -275 493 -594 1045 -395 685 -592 1017 -620
1045 -69 70 -181 93 -274 55z"/>
<path d="M3920 9844 c-687 -423 -856 -788 -764 -1644 170 -1580 1271 -3734
2614 -5113 381 -393 847 -750 1173 -901 194 -90 329 -121 532 -121 211 1 362
36 600 142 121 54 376 192 372 201 -2 4 -273 473 -601 1043 l-598 1037 -62
-28 c-378 -172 -817 -37 -1252 383 -268 259 -492 570 -677 942 -228 458 -337
862 -339 1255 -1 263 45 436 158 607 52 78 127 155 187 191 15 9 27 22 27 29
0 7 -125 230 -279 495 -153 266 -420 728 -593 1028 -173 300 -321 546 -329
548 -8 1 -84 -41 -169 -94z"/>
<path d="M8215 5320 c-50 -8 -67 -17 -414 -217 -157 -90 -301 -179 -320 -196
-71 -68 -100 -182 -67 -273 24 -68 1166 -2037 1204 -2076 74 -78 195 -101 292
-57 103 46 645 367 680 402 54 53 73 109 69 199 l-4 73 -479 830 c-264 457
-527 912 -585 1013 -58 101 -120 201 -138 222 -54 63 -149 95 -238 80z"/>
</g>
</svg>
