<?xml version="1.0" standalone="no"?>
<!DOCTYPE svg PUBLIC "-//W3C//DTD SVG 20010904//EN"
 "http://www.w3.org/TR/2001/REC-SVG-20010904/DTD/svg10.dtd">
<svg version="1.0" xmlns="http://www.w3.org/2000/svg"
 width="1920.000000pt" height="1920.000000pt" viewBox="0 0 1920.000000 1920.000000"
 preserveAspectRatio="xMidYMid meet">

<g transform="translate(0.000000,1920.000000) scale(0.100000,-0.100000)"
fill="#000000" stroke="none">
<path d="M3745 14994 c-16 -3 -78 -11 -136 -19 -675 -95 -1326 -481 -1728
-1025 -333 -451 -504 -970 -503 -1525 1 -229 6 -337 16 -354 4 -6 5 -24 2 -38
-4 -14 -2 -31 5 -39 9 -11 9 -18 -1 -29 -36 -43 53 -528 146 -798 20 -56 70
-183 111 -281 88 -210 120 -301 129 -365 6 -46 5 -49 -49 -112 -297 -348 -464
-834 -443 -1284 4 -77 9 -192 12 -255 20 -499 199 -969 506 -1335 89 -106 254
-268 353 -347 312 -248 716 -417 1106 -462 461 -54 932 16 1358 201 843 366
1417 1127 1536 2036 8 65 15 146 14 180 0 34 3 103 6 152 19 279 -12 695 -71
944 -57 245 -148 495 -268 740 -49 100 -64 141 -60 160 15 62 67 167 151 307
104 171 146 252 196 380 105 262 145 563 134 999 -5 185 -9 228 -37 360 -76
357 -204 644 -413 918 -292 385 -699 669 -1157 806 -226 68 -336 83 -630 86
-140 2 -268 1 -285 -1z m196 -1330 c182 -31 335 -97 430 -185 30 -28 47 -48
39 -45 -8 3 -53 21 -100 40 -133 54 -229 70 -394 63 -110 -4 -159 -11 -221
-30 -310 -95 -543 -285 -681 -555 -91 -177 -127 -345 -129 -593 -1 -91 2 -196
7 -235 4 -38 12 -116 18 -174 22 -203 60 -314 218 -625 59 -115 112 -222 118
-236 l11 -26 -126 -6 c-271 -13 -577 -79 -734 -159 l-38 -19 -48 103 c-59 124
-120 285 -155 405 -49 173 -110 599 -88 626 5 6 12 41 16 77 71 669 496 1240
1101 1478 247 98 532 134 756 96z m671 -1061 c6 -13 18 -23 25 -23 8 0 12 -4
9 -9 -3 -5 1 -15 10 -22 25 -20 54 -85 61 -134 5 -37 9 -45 22 -40 10 4 12 3
6 -3 -139 -134 -283 -200 -470 -217 -128 -12 -277 54 -343 152 -23 34 -24 39
-13 88 24 105 116 199 236 240 98 35 311 20 427 -30 15 -6 16 -3 8 27 -13 43
-11 62 2 23 5 -16 14 -40 20 -52z m480 -1934 c169 -57 264 -188 332 -459 61
-241 84 -544 56 -736 -19 -137 -96 -376 -163 -509 -272 -542 -776 -900 -1377
-981 -292 -39 -567 14 -801 153 -44 26 -94 60 -112 76 l-32 28 40 -25 c26 -17
43 -22 49 -16 15 15 78 12 210 -11 153 -28 385 -30 492 -6 387 88 678 349 812
729 41 115 57 205 77 428 35 374 -6 612 -151 904 -44 87 -152 253 -180 276
-16 14 -19 34 -3 25 6 -4 20 2 32 13 108 98 553 167 719 111z m-1702 -1211
c137 -41 244 -159 265 -294 10 -56 -24 -93 -134 -147 -78 -38 -93 -42 -161
-41 -108 0 -178 30 -256 108 -65 65 -102 127 -127 213 l-16 52 32 27 c99 84
272 119 397 82z"/>
<path d="M7982 13654 c-115 -30 -263 -157 -298 -255 -24 -67 -22 -164 5 -225
26 -61 91 -130 91 -98 0 37 57 139 101 180 25 22 71 53 104 69 83 41 220 47
327 15 84 -26 166 -65 261 -126 212 -137 328 -155 419 -64 46 45 49 63 11 53
-16 -4 -60 -7 -99 -7 -108 1 -147 27 -199 128 -22 44 -61 101 -86 127 -157
161 -449 254 -637 203z"/>
<path d="M13939 13656 c-64 -17 -134 -61 -202 -124 -130 -125 -152 -289 -56
-421 30 -43 59 -54 59 -23 0 32 50 120 93 163 23 23 71 56 107 73 62 29 71 31
185 31 111 -1 126 -3 200 -33 44 -17 114 -52 155 -78 232 -143 291 -165 383
-143 50 12 135 78 123 97 -3 5 -28 5 -62 -1 -71 -12 -155 4 -199 37 -19 14
-47 56 -69 99 -43 89 -117 163 -223 226 -157 93 -360 133 -494 97z"/>
<path d="M13070 12908 c-1 -51 36 -174 75 -254 84 -172 236 -302 455 -390 58
-24 188 -68 290 -99 102 -31 226 -70 275 -87 271 -93 415 -210 467 -382 l21
-70 23 29 c37 47 57 140 52 247 -3 80 -8 101 -31 140 -30 52 -128 138 -196
173 -100 50 -263 105 -396 135 -210 46 -265 62 -463 139 -217 84 -286 118
-372 181 -89 66 -115 95 -160 181 -22 41 -40 66 -40 57z"/>
<path d="M7120 12884 c0 -44 40 -175 74 -242 73 -145 195 -258 371 -343 94
-46 176 -74 571 -198 209 -66 325 -124 413 -206 74 -70 113 -133 134 -215 l14
-54 17 26 c39 60 58 131 58 218 0 120 -15 164 -82 231 -31 31 -81 72 -111 91
-91 58 -271 122 -451 162 -220 49 -556 166 -709 247 -118 63 -226 166 -278
264 -15 29 -21 34 -21 19z"/>
<path d="M9722 12280 c0 -19 2 -27 5 -17 2 9 2 25 0 35 -3 9 -5 1 -5 -18z"/>
<path d="M15676 12085 c5 -278 42 -439 154 -670 177 -367 420 -582 758 -672
86 -23 116 -26 262 -27 152 0 172 2 253 27 49 15 154 58 235 96 273 129 334
131 567 27 100 -45 167 -54 233 -32 49 16 111 66 132 106 13 24 4 25 -46 4
-29 -12 -61 -15 -134 -12 -117 5 -184 35 -227 100 l-28 41 -3 291 -3 290 -59
-119 c-79 -162 -192 -288 -390 -435 -107 -79 -171 -114 -260 -141 -105 -33
-328 -33 -475 -1 -185 41 -335 103 -440 182 -122 91 -286 283 -348 407 -106
209 -161 415 -181 668 -2 28 -2 -31 0 -130z"/>
<path d="M9736 12045 c7 -252 49 -427 157 -642 170 -339 382 -537 682 -640
202 -69 446 -70 640 -3 32 11 119 49 194 85 230 109 313 118 477 51 195 -82
269 -95 347 -63 43 19 112 87 125 126 l10 29 -46 -27 c-43 -24 -57 -26 -157
-26 -100 0 -115 2 -160 26 -111 59 -115 74 -116 416 l-1 278 -53 -110 c-61
-127 -138 -223 -279 -347 -107 -95 -261 -198 -336 -226 -176 -64 -434 -51
-692 35 -395 131 -680 505 -772 1013 -9 47 -17 105 -20 130 -2 25 -2 -22 0
-105z"/>
<path d="M12433 11590 c0 -245 1 -256 10 -147 6 75 6 170 0 265 l-10 147 0
-265z"/>
<path d="M9295 11588 c-38 -119 -133 -256 -264 -381 -139 -131 -296 -203 -551
-249 -160 -29 -526 -31 -675 -4 -160 29 -261 62 -391 126 -190 93 -318 201
-440 370 -33 47 -39 51 -42 33 -5 -33 25 -139 58 -212 104 -222 333 -405 620
-495 307 -97 774 -93 1062 10 173 62 323 167 435 304 65 80 156 259 182 360
20 77 37 190 28 190 -2 0 -12 -24 -22 -52z"/>
<path d="M15228 11533 c-57 -120 -114 -199 -218 -303 -176 -176 -374 -256
-714 -289 -345 -34 -659 10 -912 128 -181 85 -357 236 -464 399 l-55 83 -3
-51 c-11 -177 185 -474 395 -599 132 -78 302 -136 508 -172 230 -40 577 -26
782 31 157 45 311 127 425 229 68 60 162 189 208 284 48 100 92 252 88 301 -3
36 -3 35 -40 -41z"/>
<path d="M15495 9796 c-293 -50 -564 -234 -703 -477 -72 -127 -129 -311 -133
-428 -1 -20 -3 -28 -6 -19 -4 16 -8 16 -46 -4 -24 -12 -61 -21 -86 -21 l-43 0
6 -51 c3 -28 10 -211 16 -406 5 -195 9 -360 9 -367 1 -9 13 -8 47 4 91 31 190
-4 345 -120 205 -154 332 -225 484 -269 70 -20 101 -23 245 -23 158 1 169 2
260 33 168 56 258 120 448 321 230 243 266 246 520 39 108 -89 235 -165 326
-195 80 -27 85 -28 341 -28 245 0 264 1 335 24 93 29 133 49 196 99 50 40 117
127 129 171 7 21 0 18 -46 -22 -68 -59 -184 -120 -269 -140 -153 -37 -349 -46
-520 -22 -129 17 -228 50 -323 106 -84 50 -208 166 -244 227 l-25 42 -67 0
c-37 0 -92 7 -121 16 l-54 16 -28 -34 c-21 -24 -16 -13 16 42 73 125 136 357
136 506 0 92 -18 205 -46 292 -25 77 -83 206 -89 200 -2 -2 8 -41 22 -88 50
-166 31 -373 -49 -521 -93 -176 -277 -319 -474 -369 -208 -53 -433 8 -600 164
-72 67 -78 76 -77 110 2 56 57 159 107 201 150 123 332 110 550 -38 47 -31 60
-37 68 -26 14 20 2 -29 -23 -96 -26 -70 -98 -149 -180 -198 -76 -45 -48 -42
81 10 80 31 177 95 250 163 33 30 46 38 35 20 -10 -17 11 -11 38 10 27 21 58
98 56 140 0 14 10 63 22 110 40 149 25 347 -36 487 -32 72 -100 169 -157 224
-159 156 -401 226 -643 185z m572 -1008 c-3 -8 -6 -5 -6 6 -1 11 2 17 5 13 3
-3 4 -12 1 -19z"/>
<path d="M13000 9556 c0 -57 4 -96 9 -90 4 5 20 27 34 49 26 38 26 40 8 60
-10 11 -26 34 -34 50 -16 29 -16 27 -17 -69z"/>
<path d="M17346 9592 c-46 -11 -89 -72 -94 -136 -6 -76 11 -116 73 -175 66
-62 88 -65 114 -13 38 74 105 120 229 155 74 21 77 23 77 52 0 61 -120 111
-285 120 -47 2 -98 1 -114 -3z"/>
<path d="M12583 9431 c-12 -25 -37 -63 -54 -84 -29 -35 -32 -46 -33 -106 -1
-76 -18 -110 -69 -141 -41 -25 -128 -45 -161 -36 -36 9 -98 66 -136 126 -35
54 -114 120 -181 149 -53 24 -203 51 -279 51 -198 0 -386 -81 -461 -197 -55
-88 -71 -147 -77 -285 -2 -69 -1 -143 3 -165 l8 -38 22 70 c31 100 60 151 123
217 68 72 131 113 224 146 61 21 92 25 183 26 131 1 166 -7 392 -90 228 -84
265 -104 348 -188 113 -114 173 -265 162 -411 -6 -85 -26 -139 -85 -228 -63
-97 -185 -188 -390 -291 -143 -72 -313 -104 -457 -86 -258 32 -493 136 -660
292 -139 130 -211 259 -251 448 -33 153 -20 463 23 576 2 7 -5 15 -16 19 -12
3 -42 22 -67 41 -25 20 -49 32 -52 29 -4 -4 -9 -300 -12 -658 -3 -359 -9 -660
-14 -670 -11 -24 -49 -42 -114 -56 -60 -13 -87 -8 -154 25 -76 38 -88 61 -88
171 l0 94 -61 -51 c-33 -28 -95 -73 -136 -102 -231 -155 -480 -193 -777 -117
-140 36 -281 121 -376 226 -49 56 -150 237 -150 271 0 35 -14 -2 -31 -85 -33
-160 -25 -200 58 -272 63 -56 281 -200 368 -244 194 -97 368 -117 677 -78 92
12 209 21 260 21 138 1 275 17 343 40 33 11 105 52 161 89 151 102 157 105
249 105 87 0 108 -7 428 -148 216 -95 276 -110 457 -110 185 -1 221 8 442 111
179 83 228 89 385 49 56 -14 123 -26 149 -26 l48 0 -52 26 c-90 45 -84 -13
-83 820 0 403 -3 741 -7 752 -6 15 -11 11 -29 -27z"/>
<path d="M7630 9375 c-41 -7 -93 -21 -114 -30 -55 -23 -150 -89 -175 -121 -65
-83 -104 -232 -99 -385 l3 -94 19 50 c88 232 339 390 593 371 45 -3 141 -20
214 -37 126 -29 190 -32 203 -10 3 4 -12 33 -34 65 -52 80 -160 161 -235 176
-157 33 -252 36 -375 15z"/>
<path d="M9661 9354 c-207 -56 -470 -311 -533 -518 -16 -55 -19 -83 -14 -140
11 -124 14 -127 50 -39 96 236 312 413 536 439 198 22 402 -122 470 -330 l13
-40 19 48 c26 68 33 150 19 247 -29 199 -125 300 -317 334 -100 18 -174 18
-243 -1z"/>
<path d="M13430 9302 c-64 -24 -107 -49 -171 -98 -176 -135 -254 -307 -265
-579 l-6 -130 34 75 c111 247 298 420 485 449 145 23 324 -42 441 -161 77 -78
107 -122 149 -218 37 -85 39 -77 18 85 -26 199 -93 345 -207 451 -70 65 -127
93 -242 123 -95 25 -174 26 -236 3z"/>
<path d="M16953 9026 c10 -61 54 -142 108 -197 67 -69 162 -112 322 -144 195
-40 257 -67 351 -154 60 -56 89 -102 115 -177 l19 -57 27 29 c40 43 57 81 62
145 8 82 -3 125 -43 169 -71 79 -163 121 -388 180 -244 63 -406 130 -550 225
l-29 19 6 -38z"/>
<path d="M6970 8302 c0 -25 61 -146 104 -205 111 -156 290 -274 521 -342 119
-36 306 -45 409 -21 99 23 189 70 245 126 54 54 69 84 51 105 -9 11 -23 8 -83
-20 -138 -63 -310 -93 -440 -76 -319 42 -586 181 -770 400 -20 25 -37 39 -37
33z"/>
</g>
</svg>
